<svg xmlns="http://www.w3.org/2000/svg" width="44" height="45" fill="none" viewBox="0 0 44 45">
  <path fill="#1C1B1F" d="M22.6 44.3c-2.867-.267-5.592-1-8.175-2.2a22.428 22.428 0 0 1-6.85-4.925c-1.983-2.083-3.592-4.567-4.825-7.45S.833 23.583.7 19.95c3.367 0 6.367.475 9 1.425 2.633.95 4.875 2.417 6.725 4.4 1.85 1.983 3.292 4.508 4.325 7.575 1.033 3.067 1.65 6.717 1.85 10.95Zm-.65-18.65c-1.067-1.733-2.2-3.142-3.4-4.225-1.2-1.083-2.733-2.075-4.6-2.975.167-1.333.483-2.767.95-4.3a37.063 37.063 0 0 1 1.75-4.6c.7-1.533 1.5-3.05 2.4-4.55A49.6 49.6 0 0 1 21.9.75 41.103 41.103 0 0 1 24.875 5a42.364 42.364 0 0 1 2.45 4.625A38.62 38.62 0 0 1 29.1 14.3a25.5 25.5 0 0 1 .95 4.4c-1.5.467-2.958 1.333-4.375 2.6a21.773 21.773 0 0 0-3.725 4.35Zm5.1 17.45c-.2-2.733-.492-5.2-.875-7.4s-.875-4.017-1.475-5.45c1.6-3.3 4.225-5.967 7.875-8 3.65-2.033 7.225-2.833 10.725-2.4-.533 6.267-2.175 11.3-4.925 15.1-2.75 3.8-6.525 6.517-11.325 8.15Z"/>
</svg>
