<svg xmlns="http://www.w3.org/2000/svg" width="24" height="24" fill="#4D6475" viewBox="0 0 24 24">
  <path d="M11.025 21v-2.15a5.087 5.087 0 0 1-2.287-1.15c-.642-.567-1.113-1.367-1.413-2.4l1.85-.75c.25.8.621 1.408 1.113 1.825.491.417 1.137.625 1.937.625.683 0 1.263-.154 1.738-.462.475-.309.712-.788.712-1.438 0-.583-.183-1.046-.55-1.388-.367-.341-1.217-.729-2.55-1.162-1.433-.45-2.417-.987-2.95-1.612-.533-.625-.8-1.388-.8-2.288 0-1.083.35-1.925 1.05-2.525.7-.6 1.417-.942 2.15-1.025V3h2v2.1c.833.133 1.521.437 2.063.912a4.193 4.193 0 0 1 1.187 1.738l-1.85.8c-.2-.533-.483-.933-.85-1.2-.367-.267-.867-.4-1.5-.4-.733 0-1.292.163-1.675.488-.383.325-.575.729-.575 1.212 0 .55.25.983.75 1.3.5.317 1.367.65 2.6 1 1.15.333 2.021.862 2.613 1.587.591.725.887 1.563.887 2.513 0 1.183-.35 2.083-1.05 2.7-.7.617-1.567 1-2.6 1.15V21h-2Z"/>
  <path fill-opacity=".2" d="M11.025 21v-2.15a5.087 5.087 0 0 1-2.287-1.15c-.642-.567-1.113-1.367-1.413-2.4l1.85-.75c.25.8.621 1.408 1.113 1.825.491.417 1.137.625 1.937.625.683 0 1.263-.154 1.738-.462.475-.309.712-.788.712-1.438 0-.583-.183-1.046-.55-1.388-.367-.341-1.217-.729-2.55-1.162-1.433-.45-2.417-.987-2.95-1.612-.533-.625-.8-1.388-.8-2.288 0-1.083.35-1.925 1.05-2.525.7-.6 1.417-.942 2.15-1.025V3h2v2.1c.833.133 1.521.437 2.063.912a4.193 4.193 0 0 1 1.187 1.738l-1.85.8c-.2-.533-.483-.933-.85-1.2-.367-.267-.867-.4-1.5-.4-.733 0-1.292.163-1.675.488-.383.325-.575.729-.575 1.212 0 .55.25.983.75 1.3.5.317 1.367.65 2.6 1 1.15.333 2.021.862 2.613 1.587.591.725.887 1.563.887 2.513 0 1.183-.35 2.083-1.05 2.7-.7.617-1.567 1-2.6 1.15V21h-2Z"/>
</svg>
