<svg xmlns="http://www.w3.org/2000/svg" width="64" height="64" fill="#423c66" viewBox="0 0 64 64">
  <path d="M54.333 54.333V33.667v20.666Zm-3.666-30.666c1.022 0 1.889-.356 2.6-1.067.71-.711 1.066-1.578 1.066-2.6s-.355-1.889-1.066-2.6c-.711-.711-1.578-1.067-2.6-1.067-1.023 0-1.89.356-2.6 1.067C47.356 18.111 47 18.978 47 20s.356 1.889 1.067 2.6c.71.711 1.577 1.067 2.6 1.067Zm0 3c-1.911 0-3.5-.634-4.767-1.9C44.633 23.5 44 21.91 44 20c0-1.867.633-3.444 1.9-4.733 1.267-1.29 2.856-1.934 4.767-1.934 1.866 0 3.444.645 4.733 1.934 1.289 1.289 1.933 2.866 1.933 4.733 0 1.911-.644 3.5-1.933 4.767-1.289 1.266-2.867 1.9-4.733 1.9ZM32 21c1.378 0 2.556-.478 3.533-1.433C36.511 18.61 37 17.422 37 16c0-1.378-.489-2.556-1.467-3.533C34.556 11.489 33.378 11 32 11c-1.422 0-2.611.489-3.567 1.467C27.478 13.444 27 14.622 27 16c0 1.422.478 2.611 1.433 3.567C29.39 20.522 30.578 21 32 21Zm0 3c-2.267 0-4.167-.767-5.7-2.3-1.533-1.533-2.3-3.433-2.3-5.7 0-2.222.767-4.111 2.3-5.667C27.833 8.778 29.733 8 32 8c2.222 0 4.111.778 5.667 2.333C39.222 11.89 40 13.778 40 16c0 2.267-.778 4.167-2.333 5.7C36.11 23.233 34.222 24 32 24ZM19.667 35.667c0 1.6.789 3.433 2.366 5.5 1.578 2.066 4.745 5.233 9.5 9.5l.467.4.533-.467c4.578-4.178 7.69-7.289 9.334-9.333 1.644-2.045 2.466-3.911 2.466-5.6 0-1.511-.489-2.778-1.466-3.8-.978-1.023-2.2-1.534-3.667-1.534-.844 0-1.644.2-2.4.6-.756.4-1.444.911-2.067 1.534l-2.866 2.8h.266l-2.933-2.8a8.89 8.89 0 0 0-2.033-1.534 4.87 4.87 0 0 0-2.367-.6c-1.467 0-2.689.511-3.667 1.534-.977 1.022-1.466 2.289-1.466 3.8Zm-3.067 0c0-2.178.833-4.123 2.5-5.834 1.667-1.71 3.567-2.566 5.7-2.566 1.289 0 2.544.31 3.767.933a9.644 9.644 0 0 1 3.1 2.467l.333.4.333-.4A9.758 9.758 0 0 1 35.4 28.2a8.143 8.143 0 0 1 3.8-.933c2.089 0 3.978.855 5.667 2.566 1.689 1.711 2.533 3.656 2.533 5.834 0 2.222-.833 4.444-2.5 6.666-1.667 2.223-5.011 5.623-10.033 10.2L32 55.2l-2.8-2.6c-5.156-4.667-8.544-8.1-10.167-10.3-1.622-2.2-2.433-4.411-2.433-6.633Zm-3.267-12c1.023 0 1.89-.356 2.6-1.067C16.644 21.889 17 21.022 17 20s-.356-1.889-1.067-2.6c-.71-.711-1.577-1.067-2.6-1.067-1.022 0-1.889.356-2.6 1.067-.71.711-1.066 1.578-1.066 2.6s.355 1.889 1.066 2.6c.711.711 1.578 1.067 2.6 1.067ZM32.2 57.333v-3h22.133v-19.8a.83.83 0 0 0-.266-.6.83.83 0 0 0-.6-.266H45.4v-3h8.067c1.066 0 1.977.377 2.733 1.133a3.725 3.725 0 0 1 1.133 2.733v22.8H32.2Zm-22.533-3H32.2v3H6.667v-22.8c0-1.066.377-1.977 1.133-2.733a3.725 3.725 0 0 1 2.733-1.133H18.6v3h-8.067c-.266 0-.477.089-.633.266a.888.888 0 0 0-.233.6v19.8Zm3.666-27.666c-1.91 0-3.5-.634-4.766-1.9C7.3 23.5 6.667 21.91 6.667 20c0-1.867.633-3.444 1.9-4.733 1.266-1.29 2.855-1.934 4.766-1.934 1.867 0 3.445.645 4.734 1.934C19.356 16.556 20 18.133 20 20c0 1.911-.644 3.5-1.933 4.767-1.29 1.266-2.867 1.9-4.734 1.9Z"/>
  <path fill-opacity=".2" d="M54.333 54.333V33.667v20.666Zm-3.666-30.666c1.022 0 1.889-.356 2.6-1.067.71-.711 1.066-1.578 1.066-2.6s-.355-1.889-1.066-2.6c-.711-.711-1.578-1.067-2.6-1.067-1.023 0-1.89.356-2.6 1.067C47.356 18.111 47 18.978 47 20s.356 1.889 1.067 2.6c.71.711 1.577 1.067 2.6 1.067Zm0 3c-1.911 0-3.5-.634-4.767-1.9C44.633 23.5 44 21.91 44 20c0-1.867.633-3.444 1.9-4.733 1.267-1.29 2.856-1.934 4.767-1.934 1.866 0 3.444.645 4.733 1.934 1.289 1.289 1.933 2.866 1.933 4.733 0 1.911-.644 3.5-1.933 4.767-1.289 1.266-2.867 1.9-4.733 1.9ZM32 21c1.378 0 2.556-.478 3.533-1.433C36.511 18.61 37 17.422 37 16c0-1.378-.489-2.556-1.467-3.533C34.556 11.489 33.378 11 32 11c-1.422 0-2.611.489-3.567 1.467C27.478 13.444 27 14.622 27 16c0 1.422.478 2.611 1.433 3.567C29.39 20.522 30.578 21 32 21Zm0 3c-2.267 0-4.167-.767-5.7-2.3-1.533-1.533-2.3-3.433-2.3-5.7 0-2.222.767-4.111 2.3-5.667C27.833 8.778 29.733 8 32 8c2.222 0 4.111.778 5.667 2.333C39.222 11.89 40 13.778 40 16c0 2.267-.778 4.167-2.333 5.7C36.11 23.233 34.222 24 32 24ZM19.667 35.667c0 1.6.789 3.433 2.366 5.5 1.578 2.066 4.745 5.233 9.5 9.5l.467.4.533-.467c4.578-4.178 7.69-7.289 9.334-9.333 1.644-2.045 2.466-3.911 2.466-5.6 0-1.511-.489-2.778-1.466-3.8-.978-1.023-2.2-1.534-3.667-1.534-.844 0-1.644.2-2.4.6-.756.4-1.444.911-2.067 1.534l-2.866 2.8h.266l-2.933-2.8a8.89 8.89 0 0 0-2.033-1.534 4.87 4.87 0 0 0-2.367-.6c-1.467 0-2.689.511-3.667 1.534-.977 1.022-1.466 2.289-1.466 3.8Zm-3.067 0c0-2.178.833-4.123 2.5-5.834 1.667-1.71 3.567-2.566 5.7-2.566 1.289 0 2.544.31 3.767.933a9.644 9.644 0 0 1 3.1 2.467l.333.4.333-.4A9.758 9.758 0 0 1 35.4 28.2a8.143 8.143 0 0 1 3.8-.933c2.089 0 3.978.855 5.667 2.566 1.689 1.711 2.533 3.656 2.533 5.834 0 2.222-.833 4.444-2.5 6.666-1.667 2.223-5.011 5.623-10.033 10.2L32 55.2l-2.8-2.6c-5.156-4.667-8.544-8.1-10.167-10.3-1.622-2.2-2.433-4.411-2.433-6.633Zm-3.267-12c1.023 0 1.89-.356 2.6-1.067C16.644 21.889 17 21.022 17 20s-.356-1.889-1.067-2.6c-.71-.711-1.577-1.067-2.6-1.067-1.022 0-1.889.356-2.6 1.067-.71.711-1.066 1.578-1.066 2.6s.355 1.889 1.066 2.6c.711.711 1.578 1.067 2.6 1.067ZM32.2 57.333v-3h22.133v-19.8a.83.83 0 0 0-.266-.6.83.83 0 0 0-.6-.266H45.4v-3h8.067c1.066 0 1.977.377 2.733 1.133a3.725 3.725 0 0 1 1.133 2.733v22.8H32.2Zm-22.533-3H32.2v3H6.667v-22.8c0-1.066.377-1.977 1.133-2.733a3.725 3.725 0 0 1 2.733-1.133H18.6v3h-8.067c-.266 0-.477.089-.633.266a.888.888 0 0 0-.233.6v19.8Zm3.666-27.666c-1.91 0-3.5-.634-4.766-1.9C7.3 23.5 6.667 21.91 6.667 20c0-1.867.633-3.444 1.9-4.733 1.266-1.29 2.855-1.934 4.766-1.934 1.867 0 3.445.645 4.734 1.934C19.356 16.556 20 18.133 20 20c0 1.911-.644 3.5-1.933 4.767-1.29 1.266-2.867 1.9-4.734 1.9Z"/>
</svg>
